<svg xmlns="http://www.w3.org/2000/svg" width="66.315" height="60.81" viewBox="0 0 66.315 60.81">
  <g id="Сгруппировать_101" data-name="Сгруппировать 101" transform="translate(4134.685 -988.187)">
    <path id="Контур_39" data-name="Контур 39" d="M-4071.823,1042.091h-1.707a10.281,10.281,0,0,1,0-8.36h1.709a3.457,3.457,0,0,0,3.453-3.453,3.457,3.457,0,0,0-3.453-3.453h-6.87a5.648,5.648,0,0,0,1.406-3.734v-10.819a5.682,5.682,0,0,0-5.676-5.676h-2.793a3.49,3.49,0,0,0,.371-1.569,3.517,3.517,0,0,0-3.512-3.516h-.961a8.029,8.029,0,0,1,0-6.3h.962a3.518,3.518,0,0,0,3.512-3.516,3.515,3.515,0,0,0-3.512-3.512h-32.769a10.188,10.188,0,0,0-10.178,10.174,10.11,10.11,0,0,0,2.985,7.192,10.434,10.434,0,0,0,1.22,1.043h-.752a3.457,3.457,0,0,0-3.453,3.453,3.457,3.457,0,0,0,3.453,3.453h1.709a10.279,10.279,0,0,1,0,8.359h-1.707a3.457,3.457,0,0,0-3.453,3.453,3.433,3.433,0,0,0,.614,1.962,5.686,5.686,0,0,0-3.455,5.225v10.819a5.681,5.681,0,0,0,5.672,5.677h57.19a3.457,3.457,0,0,0,3.453-3.453,3.457,3.457,0,0,0-3.453-3.453Zm0-13.323a1.511,1.511,0,0,1,1.51,1.51,1.511,1.511,0,0,1-1.51,1.51h-17.532a.971.971,0,0,0-.971.972.971.971,0,0,0,.971.971h13.74a12.593,12.593,0,0,0-.7,3.208,10.926,10.926,0,0,0,.7,5.152H-4127.5a.285.285,0,0,1-.281-.282v-7.8a.284.284,0,0,1,.281-.281h9.623v3.191a1.375,1.375,0,0,0,.691,1.471,1.4,1.4,0,0,0,1.621-.391l.015-.014,2.715-2.59,2.715,2.59.015.014a1.658,1.658,0,0,0,1.114.508,1.155,1.155,0,0,0,.512-.119,1.372,1.372,0,0,0,.686-1.472l0-3.188h13.65a.972.972,0,0,0,.972-.971.972.972,0,0,0-.972-.972h-13.65l0-3.02Zm-52.076-12.057a12.607,12.607,0,0,0-.7-3.209h40.128a.286.286,0,0,1,.282.281v7.8a.285.285,0,0,1-.282.281h-23.31l0-3.208h6.8a.971.971,0,0,0,.972-.971.971.971,0,0,0-.972-.972H-4123.9Zm6.022,5.151h-6.727a12.68,12.68,0,0,0,.7-3.209h6.022Zm8.152-3.209-.007,17.016-2.43-2.317a.971.971,0,0,0-1.341,0l-2.429,2.317,0-17.016Zm-20.176-20.292a8.242,8.242,0,0,1,8.235-8.231h32.769a1.571,1.571,0,0,1,1.569,1.569,1.573,1.573,0,0,1-1.569,1.573H-4106.8a.972.972,0,0,0-.972.971.972.972,0,0,0,.972.972h14.875a9.874,9.874,0,0,0,0,6.3h-29.74a3.139,3.139,0,0,1-2.224-.923,3.144,3.144,0,0,1-.926-2.227,3.151,3.151,0,0,1,3.15-3.146h10.079a.971.971,0,0,0,.971-.972.971.971,0,0,0-.971-.971h-10.079a5.1,5.1,0,0,0-5.093,5.089,5.078,5.078,0,0,0,1.495,3.6,5.076,5.076,0,0,0,3.6,1.492h32.769a1.573,1.573,0,0,1,1.569,1.573,1.571,1.571,0,0,1-1.569,1.569h-32.769a8.179,8.179,0,0,1-5.819-2.416,8.18,8.18,0,0,1-2.416-5.819Zm1.51,13.2a1.511,1.511,0,0,1-1.51-1.51,1.511,1.511,0,0,1,1.51-1.51h45.428a3.737,3.737,0,0,1,3.733,3.733v10.819a3.737,3.737,0,0,1-3.733,3.734h-24.823l0-3.02h23.31a2.226,2.226,0,0,0,2.224-2.224v-7.8a2.226,2.226,0,0,0-2.224-2.223h-43.917Zm0,12.245h10.514v3.021h-10.515a1.512,1.512,0,0,1-1.51-1.51,1.512,1.512,0,0,1,1.51-1.511Zm56.568,23.25h-57.19a3.736,3.736,0,0,1-3.73-3.734V1032.5a3.736,3.736,0,0,1,3.73-3.733h11.137v3.02h-9.623a2.226,2.226,0,0,0-2.224,2.224v7.8a2.226,2.226,0,0,0,2.224,2.224h55.675a1.512,1.512,0,0,1,1.51,1.511,1.512,1.512,0,0,1-1.51,1.51Z" fill="#fff"/>
  </g>
</svg>
