<svg xmlns="http://www.w3.org/2000/svg" width="70.304" height="66.84" viewBox="0 0 70.304 66.84">
  <g id="Сгруппировать_110" data-name="Сгруппировать 110" transform="translate(3383.58 -987.705)">
    <path id="Контур_50" data-name="Контур 50" d="M-3374.173,1011.487a2.121,2.121,0,0,0,1.619.207,2.125,2.125,0,0,0,1.3-.985c1.573-2.725,3.208-5.874,4.893-8.478a2.139,2.139,0,0,0,.183-1.572,2.129,2.129,0,0,0-1.043-1.327q-3.5-2.02-7-4.041l-7,12.125,7.049,4.071Zm23.09.117a1.341,1.341,0,0,0,1.023.129,1.348,1.348,0,0,0,.857-.685,1.373,1.373,0,0,0,.1-.966,1.365,1.365,0,0,0-.58-.794l-7.333-4.235a4.432,4.432,0,0,0-3.274-.42,7.472,7.472,0,0,1-4.85-.533l-3.9,6.757a14.565,14.565,0,0,1,4.764,4.616,12.9,12.9,0,0,0,4.773,4.391c2.833,1.635,5.877,3.215,8.656,3.674a6.519,6.519,0,0,0,6.87-2.826,2.172,2.172,0,0,0,.171-1.673,2.832,2.832,0,0,0-1.346-1.709l-11.389-6.574a1,1,0,0,1-.366-1.363,1,1,0,0,1,1.366-.366Zm-25.168.981c-.133.673-.238,1.358-.323,2.051a28.1,28.1,0,0,0-.2,3.422,28.589,28.589,0,0,0,.72,6.4,28.248,28.248,0,0,0,2.145,6.048.991.991,0,0,1-.456,1.332.994.994,0,0,1-1.331-.456,30,30,0,0,1-2.3-6.481,30.578,30.578,0,0,1-.778-6.846,30.711,30.711,0,0,1,.221-3.655q.175-1.441.487-2.869l-5.006-2.888a1,1,0,0,1-.369-1.362l8-13.849a1,1,0,0,1,1.359-.37l4.92,2.841a30.428,30.428,0,0,1,9.244-5.943,30.257,30.257,0,0,1,11.5-2.258,30.238,30.238,0,0,1,11.5,2.258,30.4,30.4,0,0,1,9.245,5.943l4.865-2.806a1,1,0,0,1,1.417.331l2.829,4.9a1,1,0,0,1-.362,1.366,1,1,0,0,1-1.366-.365l-2.331-4.041q-3.527,2.039-7.049,4.072a2.117,2.117,0,0,0-.989,1.3,2.111,2.111,0,0,0,.206,1.615q2.44,4.211,4.866,8.431a2.131,2.131,0,0,0,1.3.989,2.126,2.126,0,0,0,1.615-.207q3.527-2.043,7.057-4.071l-2.335-4.04a1,1,0,0,1,.366-1.363,1,1,0,0,1,1.362.366l2.83,4.9a1,1,0,0,1-.366,1.362l-5.01,2.888q.315,1.425.491,2.869a30.7,30.7,0,0,1,.218,3.655,30.215,30.215,0,0,1-6.127,18.286,30.41,30.41,0,0,1-15.227,10.708v6.492a1,1,0,0,1-1,1h-15.994a1,1,0,0,1-1-1v-6.492a30.294,30.294,0,0,1-8.54-4.223,30.417,30.417,0,0,1-7.279-7.295.993.993,0,0,1,.242-1.389,1,1,0,0,1,1.393.241,28.422,28.422,0,0,0,6.8,6.819,28.337,28.337,0,0,0,7.384,3.749v-.549a4.122,4.122,0,0,1,1.21-2.919,4.162,4.162,0,0,1,1.873-1.078,5.844,5.844,0,0,0-1.526-3.352,6.078,6.078,0,0,1-1.709-4.293v-8.408a3.026,3.026,0,0,1,.222-1.05c-1.071-.538-2.125-1.121-3.153-1.713a14.545,14.545,0,0,1-5.4-4.967,13.019,13.019,0,0,0-4.238-4.106,4.109,4.109,0,0,1-1.888,1.105,4.114,4.114,0,0,1-3.13-.409Zm8.89-15.632c.4.226.794.456,1.191.681a4.144,4.144,0,0,1,1.919,2.507,4.112,4.112,0,0,1-.008,2.16,5.869,5.869,0,0,0,3.671.355,6.071,6.071,0,0,1,4.569.669l7.287,4.208a3.569,3.569,0,0,1,.552.4c.347-.222.7-.452,1.059-.67.607-.377,1.257-.77,1.857-1.113a14.55,14.55,0,0,1,7-2.2,12.976,12.976,0,0,0,5.671-1.615,4.11,4.11,0,0,1-.011-2.192,4.1,4.1,0,0,1,1.919-2.5l1.187-.685a28.393,28.393,0,0,0-8.194-5.145,28.244,28.244,0,0,0-10.739-2.1,28.251,28.251,0,0,0-10.739,2.1,28.445,28.445,0,0,0-8.193,5.145Zm20.205,12.693a3.351,3.351,0,0,1-1.281,3.492l4.278,2.467a4.791,4.791,0,0,1,1.884,1.931l4.406-2.542a1,1,0,0,1,1.366.362,1,1,0,0,1-.366,1.367l-4.456,2.572a1,1,0,0,1-.405.129,4.13,4.13,0,0,1-.2,1.569,1.619,1.619,0,0,0,.931.778,1.385,1.385,0,0,0,1.027-.128l7.283-4.208a4.374,4.374,0,0,0,2-2.623,7.486,7.486,0,0,1,2.889-3.936l-3.9-6.757a14.594,14.594,0,0,1-6.384,1.814,12.869,12.869,0,0,0-6.185,1.942c-.487.277-1.121.662-1.79,1.078-.386.238-.755.475-1.094.693Zm4.095,13.149a8.119,8.119,0,0,1-7.808,2.759v3.951a1,1,0,0,1-1,1,1,1,0,0,1-1-1v-4.386a22.538,22.538,0,0,1-2.662-.962.745.745,0,0,0-.035.2v8.408a4.433,4.433,0,0,0,1.269,3.052,7.488,7.488,0,0,1,1.961,4.46h7.8a15.246,15.246,0,0,1,1.728-6.671,1,1,0,0,1,1.327-.487,1,1,0,0,1,.487,1.324,13.6,13.6,0,0,0-1.546,5.959,4.131,4.131,0,0,1,1.9,1.086,4.125,4.125,0,0,1,1.214,2.919v.549a28.439,28.439,0,0,0,13.636-9.817,28.233,28.233,0,0,0,5.717-17.079,28.3,28.3,0,0,0-.206-3.422c-.082-.693-.191-1.378-.319-2.051l-1.086.63a4.118,4.118,0,0,1-3.13.409,4.117,4.117,0,0,1-1.872-1.086,5.878,5.878,0,0,0-2.137,3,6.083,6.083,0,0,1-2.806,3.593l-7.345,4.239a3.587,3.587,0,0,1-.642.288c.078,1.28.113,2.577.113,3.861a20.635,20.635,0,0,1-.109,2.141.994.994,0,0,1-1.094.891,1,1,0,0,1-.891-1.094,17.893,17.893,0,0,0,.093-1.938c0-1.281-.027-2.565-.113-3.846a3.338,3.338,0,0,1-1.44-.875Zm-12.362,21.61v8.139h13.993v-8.139a2.126,2.126,0,0,0-.627-1.5,2.107,2.107,0,0,0-1.5-.627h-9.734a2.109,2.109,0,0,0-1.5.627,2.108,2.108,0,0,0-.626,1.5Z" fill="#fff"/>
  </g>
</svg>
