<svg xmlns="http://www.w3.org/2000/svg" width="66.379" height="66.379" viewBox="0 0 66.379 66.379">
  <g id="Сгруппировать_104" data-name="Сгруппировать 104" transform="translate(4137.586 -1149.963)">
    <g id="Сгруппировать_103" data-name="Сгруппировать 103">
      <path id="Контур_40" data-name="Контур 40" d="M-4071.719,1208.954l-.947-.947a.973.973,0,0,0-1.375,0,.972.972,0,0,0,0,1.375l.809.81-4.125,4.125-7.013-7.013,4.125-4.125,3.272,3.272a.974.974,0,0,0,1.375,0,.973.973,0,0,0,0-1.376l-3.958-3.957v0l-2.75-2.75,0,0-2.427-2.427a1.738,1.738,0,0,0-1.238-.513,1.738,1.738,0,0,0-1.237.512l-.138.138-3.479-3.48a26.165,26.165,0,0,0,5.155-10.812h6.851a.973.973,0,0,0,.972-.973.972.972,0,0,0-.972-.972h-6.507q.129-.929.192-1.875h10.949a.972.972,0,0,0,.973-.972.973.973,0,0,0-.973-.973h-10.892q-.007-.944-.078-1.875h6.336a.972.972,0,0,0,.972-.972.972.972,0,0,0-.972-.972h-6.558a25.936,25.936,0,0,0-5.355-12.263.973.973,0,0,0-1.366-.159.973.973,0,0,0-.159,1.366,24.055,24.055,0,0,1,5.237,15.075,24.336,24.336,0,0,1-24.308,24.309,24.337,24.337,0,0,1-24.309-24.309,24.337,24.337,0,0,1,24.309-24.309,24.25,24.25,0,0,1,16.344,6.315.973.973,0,0,0,1.374-.066.971.971,0,0,0-.066-1.373,26.192,26.192,0,0,0-17.652-6.821,26.284,26.284,0,0,0-26.254,26.254A26.3,26.3,0,0,0-4116.292,1202v6.56a.973.973,0,0,0,.972.973.973.973,0,0,0,.973-.973V1202.3q.927.106,1.875.148v10.687a.972.972,0,0,0,.972.972.972.972,0,0,0,.972-.972v-10.674q.946-.029,1.875-.122v6.223a.973.973,0,0,0,.973.973.973.973,0,0,0,.972-.973v-6.5a26.144,26.144,0,0,0,11.753-5.342l3.48,3.479-.137.138a1.736,1.736,0,0,0-.513,1.238,1.739,1.739,0,0,0,.512,1.237l2.428,2.428,0,0,2.75,2.75h0l7.836,7.837a1.741,1.741,0,0,0,1.238.512,1.743,1.743,0,0,0,1.238-.512l4.4-4.4a1.741,1.741,0,0,0,.512-1.238,1.741,1.741,0,0,0-.512-1.238Zm-20.384-14.884,3.378,3.379-1.375,1.375-3.379-3.378q.714-.662,1.376-1.376Zm6.358,11.859-1.375-1.375,4.125-4.125,1.375,1.375Zm-.23-8.48,1.6,1.6-4.126,4.126-1.6-1.6Z" fill="#fff"/>
      <path id="Контур_41" data-name="Контур 41" d="M-4124.873,1194.016a22.806,22.806,0,0,0,13.541,4.565,22.39,22.39,0,0,0,22.364-22.364,22.389,22.389,0,0,0-22.364-22.364,22.1,22.1,0,0,0-15.761,6.559,22.588,22.588,0,0,0-6.6,15.8,21.858,21.858,0,0,0,5.626,14.884.974.974,0,0,0,1.374.072.973.973,0,0,0,.072-1.373,19.917,19.917,0,0,1-5.128-13.563,20.66,20.66,0,0,1,6.037-14.443,20.166,20.166,0,0,1,14.383-5.986,20.442,20.442,0,0,1,20.419,20.419,20.44,20.44,0,0,1-20.408,20.419,20.871,20.871,0,0,1-12.384-4.174.972.972,0,0,0-1.361.193.972.972,0,0,0,.193,1.361Z" fill="#fff"/>
      <path id="Контур_42" data-name="Контур 42" d="M-4107.637,1158.844h-6.742a1.493,1.493,0,0,0-1.491,1.491v3.436h-6.288a1.493,1.493,0,0,0-1.491,1.491V1175.7h-1.3a.973.973,0,0,0-.972.973.972.972,0,0,0,.972.972h27.884a.971.971,0,0,0,.972-.972.972.972,0,0,0-.972-.973h-1.3v-5.51a1.492,1.492,0,0,0-1.49-1.491h-6.288v-8.362A1.493,1.493,0,0,0-4107.637,1158.844Zm-14.067,6.872h5.834v9.982h-5.834Zm7.779-4.927h5.834V1175.7h-5.834Zm13.613,9.853v5.056h-5.834v-5.056Z" fill="#fff"/>
      <path id="Контур_43" data-name="Контур 43" d="M-4100.118,1185.882h-4.577l-2.08-5.315a.975.975,0,0,0-.914-.619.971.971,0,0,0-.9.635l-2.842,7.663-1.986-5.63a.973.973,0,0,0-.835-.645.971.971,0,0,0-.931.495l-1.908,3.416h-4.565a.973.973,0,0,0-.973.973.973.973,0,0,0,.973.972h5.136a.975.975,0,0,0,.849-.5l1.136-2.035,2.164,6.133a.971.971,0,0,0,.909.649h.008a.974.974,0,0,0,.912-.634l2.889-7.79,1.391,3.557a.972.972,0,0,0,.906.618h5.241a.973.973,0,0,0,.973-.972A.974.974,0,0,0-4100.118,1185.882Z" fill="#fff"/>
    </g>
  </g>
</svg>
