<svg xmlns="http://www.w3.org/2000/svg" width="57.826" height="57.826" viewBox="0 0 57.826 57.826">
  <g id="outline" transform="translate(3376.877 -1159.013)">
    <path id="Контур_48" data-name="Контур 48" d="M-3321.206,1162.868a.227.227,0,0,1-.2-.125l-1.269-2.539a2.142,2.142,0,0,0-1.927-1.191h-22.622a2.142,2.142,0,0,0-1.927,1.191l-1.269,2.538a.227.227,0,0,1-.2.126h-24.094a2.157,2.157,0,0,0-2.155,2.155v39.287a.964.964,0,0,0,.964.964h31.8v6.746a4.825,4.825,0,0,0,4.819,4.819h11.565a4.825,4.825,0,0,0,4.819-4.819v-6.746h2.891a.964.964,0,0,0,.964-.964v-39.287A2.158,2.158,0,0,0-3321.206,1162.868Zm-53.516,1.928h24.094a2.146,2.146,0,0,0,1.928-1.192l1.268-2.537a.225.225,0,0,1,.2-.126h22.622a.224.224,0,0,1,.2.125l1.269,2.539a2.145,2.145,0,0,0,1.928,1.191.227.227,0,0,1,.227.227v9.422a2.159,2.159,0,0,0-.227-.012h-1.7v-2.891a.964.964,0,0,0-.964-.964h-.964v-2.891a.964.964,0,0,0-.964-.964h-46.26a.964.964,0,0,0-.964.964v3.722a2.186,2.186,0,0,0-.227.361l-1.269,2.537a.225.225,0,0,1-.2.126,2.159,2.159,0,0,0-.227.012v-9.422A.227.227,0,0,1-3374.722,1164.8Zm47.961,5.782h-44.333v-1.927h44.333Zm1.927,1.928v1.927h-18.539a.224.224,0,0,1-.2-.125l-.9-1.8Zm0,39.514a2.894,2.894,0,0,1-2.891,2.891h-11.565a2.9,2.9,0,0,1-2.892-2.891v-10.6a.965.965,0,0,1,.964-.964h15.42a.965.965,0,0,1,.964.964Zm-1.927-13.493h-1.928v-2.891a4.819,4.819,0,0,0-4.819-4.819,4.819,4.819,0,0,0-4.819,4.819v2.891h-1.927v-2.891a6.746,6.746,0,0,1,6.746-6.746,6.747,6.747,0,0,1,6.747,6.746Zm-3.855,0h-5.783v-2.891a2.89,2.89,0,0,1,2.891-2.891,2.891,2.891,0,0,1,2.892,2.891Zm9.637,4.819h-1.927v-1.927a2.9,2.9,0,0,0-1.928-2.726v-3.057a8.674,8.674,0,0,0-8.674-8.674,8.674,8.674,0,0,0-8.674,8.674v3.057a2.9,2.9,0,0,0-1.927,2.726v1.927h-30.84v-26.758a.228.228,0,0,1,.227-.227,2.146,2.146,0,0,0,1.928-1.192l1.268-2.537a.227.227,0,0,1,.2-.126h24.549a.228.228,0,0,1,.2.125l1.269,2.539a2.142,2.142,0,0,0,1.927,1.191h22.167a.228.228,0,0,1,.227.227Z" fill="#fff"/>
    <path id="Контур_49" data-name="Контур 49" d="M-3333.508,1202.382a3.856,3.856,0,0,0-3.855,3.854,3.855,3.855,0,0,0,.964,2.55v1.306a2.891,2.891,0,0,0,2.891,2.892,2.892,2.892,0,0,0,2.892-2.892h0v-1.306a3.855,3.855,0,0,0-.341-5.44A3.86,3.86,0,0,0-3333.508,1202.382Zm1.285,5.292a.965.965,0,0,0-.321.718v1.7a.963.963,0,0,1-.964.964.963.963,0,0,1-.963-.964v-1.7a.965.965,0,0,0-.321-.718,1.928,1.928,0,0,1-.153-2.722,1.928,1.928,0,0,1,2.722-.152,1.927,1.927,0,0,1,.152,2.722A1.96,1.96,0,0,1-3332.223,1207.674Z" fill="#fff"/>
  </g>
</svg>
