<svg xmlns="http://www.w3.org/2000/svg" width="63.882" height="63.882" viewBox="0 0 63.882 63.882">
  <g id="Сгруппировать_107" data-name="Сгруппировать 107" transform="translate(4137.44 -1316.857)">
    <g id="Сгруппировать_106" data-name="Сгруппировать 106">
      <path id="Контур_44" data-name="Контур 44" d="M-4125.511,1360.139h-.55a.935.935,0,0,0-.936.935.936.936,0,0,0,.936.936h41.124a.936.936,0,0,0,.936-.936.935.935,0,0,0-.936-.935h-.55a7.744,7.744,0,0,0-4.677-6.187,4.153,4.153,0,0,0,1.179-2.9,4.173,4.173,0,0,0-4.169-4.169,4.174,4.174,0,0,0-4.169,4.169,4.155,4.155,0,0,0,1.176,2.9,7.663,7.663,0,0,0-1.619.927,10.222,10.222,0,0,0-4.634-3.394,5.335,5.335,0,0,0,1.893-4.076,5.351,5.351,0,0,0-5.345-5.345,5.351,5.351,0,0,0-5.344,5.345,5.334,5.334,0,0,0,1.892,4.075c-.2.074-.407.152-.608.239a.935.935,0,0,0-.485,1.231.934.934,0,0,0,1.231.485,8.265,8.265,0,0,1,3.314-.685,8.335,8.335,0,0,1,8.271,7.386h-16.541a8.313,8.313,0,0,1,2.062-4.607.936.936,0,0,0-.074-1.321.938.938,0,0,0-1.322.074c-.081.091-.159.184-.236.277a7.659,7.659,0,0,0-1.163-.608,4.15,4.15,0,0,0,1.18-2.9,4.174,4.174,0,0,0-4.169-4.169,4.174,4.174,0,0,0-4.169,4.169,4.153,4.153,0,0,0,1.179,2.9,7.745,7.745,0,0,0-4.677,6.187Zm16.186-12.732a3.477,3.477,0,0,1,3.473-3.473,3.477,3.477,0,0,1,3.473,3.473,3.477,3.477,0,0,1-3.473,3.473,3.477,3.477,0,0,1-3.473-3.473Zm16.171,1.347a2.3,2.3,0,0,1,2.3,2.3,2.3,2.3,0,0,1-2.3,2.3,2.3,2.3,0,0,1-2.3-2.3,2.3,2.3,0,0,1,2.3-2.3Zm-3.609,7.713a5.81,5.81,0,0,1,3.609-1.246,5.863,5.863,0,0,1,5.779,4.917h-8.327a10.1,10.1,0,0,0-1.061-3.671Zm-21.081-7.713a2.3,2.3,0,0,1,2.3,2.3,2.3,2.3,0,0,1-2.3,2.3,2.3,2.3,0,0,1-2.3-2.3A2.3,2.3,0,0,1-4117.844,1348.754Zm0,6.467a5.861,5.861,0,0,1,3.092.884,10.173,10.173,0,0,0-1.251,4.033h-7.62A5.863,5.863,0,0,1-4117.844,1355.221Z" fill="#fff"/>
      <path id="Контур_45" data-name="Контур 45" d="M-4106.519,1339.721a.933.933,0,0,0,.667.28.931.931,0,0,0,.655-.268l8.541-8.373a.938.938,0,0,0,.013-1.324.936.936,0,0,0-1.324-.013l-7.872,7.72-4.873-4.962a.935.935,0,0,0-1.323-.012.935.935,0,0,0-.012,1.323Z" fill="#fff"/>
      <path id="Контур_46" data-name="Контур 46" d="M-4082.372,1326.767a.936.936,0,0,0-1.323-.032.935.935,0,0,0-.032,1.323,29.934,29.934,0,0,1,8.3,20.74,29.87,29.87,0,0,1-8.807,21.262,29.872,29.872,0,0,1-21.262,8.807,29.874,29.874,0,0,1-21.262-8.807,29.877,29.877,0,0,1-8.807-21.262,29.873,29.873,0,0,1,8.807-21.262,29.869,29.869,0,0,1,21.262-8.807,30.139,30.139,0,0,1,18.931,6.7.936.936,0,0,0,1.316-.137.937.937,0,0,0-.137-1.316,32.014,32.014,0,0,0-20.11-7.124,31.732,31.732,0,0,0-22.585,9.355,31.731,31.731,0,0,0-9.356,22.586,31.731,31.731,0,0,0,9.356,22.585,31.729,31.729,0,0,0,22.585,9.356,31.732,31.732,0,0,0,22.586-9.356,31.735,31.735,0,0,0,9.355-22.585,31.8,31.8,0,0,0-8.814-22.031Z" fill="#fff"/>
      <path id="Контур_47" data-name="Контур 47" d="M-4080.732,1347.862h2.431a.932.932,0,0,0,.683-.3.933.933,0,0,0,.25-.7,28.142,28.142,0,0,0-8.192-18,28.148,28.148,0,0,0-18-8.193.946.946,0,0,0-.7.251.932.932,0,0,0-.3.683v2.431a.937.937,0,0,1-.936.936.937.937,0,0,1-.936-.936V1321.6a.935.935,0,0,0-.3-.683.94.94,0,0,0-.7-.251,28.145,28.145,0,0,0-18,8.193,28.136,28.136,0,0,0-8.193,18,.931.931,0,0,0,.25.7.932.932,0,0,0,.683.3h2.431a.936.936,0,0,1,.936.936.937.937,0,0,1-.936.936h-2.431a.934.934,0,0,0-.683.3.934.934,0,0,0-.25.7,28.133,28.133,0,0,0,8.193,18,28.412,28.412,0,0,0,5.035,4.01.935.935,0,0,0,1.289-.3.936.936,0,0,0-.3-1.29,26.567,26.567,0,0,1-4.7-3.746,26.272,26.272,0,0,1-7.562-15.808h1.41a2.811,2.811,0,0,0,2.808-2.807,2.811,2.811,0,0,0-2.808-2.807h-1.41a26.273,26.273,0,0,1,7.562-15.808,26.279,26.279,0,0,1,15.808-7.563v1.411a2.811,2.811,0,0,0,2.807,2.808,2.811,2.811,0,0,0,2.807-2.808v-1.411a26.28,26.28,0,0,1,15.808,7.563,26.273,26.273,0,0,1,7.562,15.807h-1.41a2.812,2.812,0,0,0-2.808,2.808,2.811,2.811,0,0,0,2.808,2.807h1.411a26.282,26.282,0,0,1-7.563,15.808,26.279,26.279,0,0,1-15.808,7.562v-1.411a2.811,2.811,0,0,0-2.807-2.807,2.811,2.811,0,0,0-2.807,2.807v1.412a26.073,26.073,0,0,1-7.694-2.022.935.935,0,0,0-1.231.485.935.935,0,0,0,.485,1.231,28.005,28.005,0,0,0,9.313,2.259c.021,0,.042,0,.063,0a.934.934,0,0,0,.639-.252.935.935,0,0,0,.3-.683v-2.432a.936.936,0,0,1,.936-.935.936.936,0,0,1,.936.935v2.431a.933.933,0,0,0,.3.684.936.936,0,0,0,.7.25,28.133,28.133,0,0,0,18-8.193,28.144,28.144,0,0,0,8.193-18,.94.94,0,0,0-.251-.7.935.935,0,0,0-.683-.3h-2.431a.937.937,0,0,1-.936-.936.937.937,0,0,1,.936-.936Z" fill="#fff"/>
    </g>
  </g>
</svg>
