<svg xmlns="http://www.w3.org/2000/svg" width="14.94" height="27.633" viewBox="0 0 14.94 27.633">
  <g id="Сгруппировать_122" data-name="Сгруппировать 122" transform="translate(3086.011 -3456.561)">
    <path id="Контур_61" data-name="Контур 61" d="M-3071.634,3456.566l-3.583,0c-4.026,0-6.628,2.669-6.628,6.8v3.136h-3.6a.563.563,0,0,0-.563.563v4.543a.563.563,0,0,0,.563.564h3.6v11.463a.564.564,0,0,0,.564.564h4.7a.564.564,0,0,0,.563-.564v-11.463h4.213a.563.563,0,0,0,.563-.564l0-4.543a.566.566,0,0,0-.165-.4.562.562,0,0,0-.4-.165h-4.214v-2.658c0-1.278.3-1.926,1.969-1.926h2.414a.564.564,0,0,0,.563-.564v-4.218A.564.564,0,0,0-3071.634,3456.566Z" fill="#fff"/>
  </g>
</svg>
