<svg xmlns="http://www.w3.org/2000/svg" width="58" height="58" viewBox="0 0 58 58">
  <g id="Сгруппировать_85" data-name="Сгруппировать 85" transform="translate(3824.809 -2298.594)">
    <g id="Сгруппировать_84" data-name="Сгруппировать 84">
      <g id="Сгруппировать_83" data-name="Сгруппировать 83">
        <path id="Контур_18" data-name="Контур 18" d="M-3773,2309.688h1.793a1.132,1.132,0,0,0,1.132-1.132,1.132,1.132,0,0,0-1.132-1.132h-4.3a1.132,1.132,0,0,0-1.132,1.132v4.3a1.132,1.132,0,0,0,1.132,1.132,1.132,1.132,0,0,0,1.132-1.132v-1.246a26.651,26.651,0,0,1,5.3,15.982,26.767,26.767,0,0,1-26.736,26.736,26.767,26.767,0,0,1-26.736-26.736,26.766,26.766,0,0,1,26.736-26.736,27.076,27.076,0,0,1,3.262.2,1.133,1.133,0,0,0,1.26-.988,1.131,1.131,0,0,0-.987-1.26,29.544,29.544,0,0,0-3.535-.213,28.808,28.808,0,0,0-20.506,8.494,28.807,28.807,0,0,0-8.494,20.506,28.807,28.807,0,0,0,8.494,20.506,28.812,28.812,0,0,0,20.506,8.494,28.812,28.812,0,0,0,20.506-8.494,28.811,28.811,0,0,0,8.494-20.506A28.9,28.9,0,0,0-3773,2309.688Z" fill="#8ab82d"/>
        <path id="Контур_19" data-name="Контур 19" d="M-3812.529,2315.689a1.132,1.132,0,0,0-1.562.351,21.7,21.7,0,0,0-3.222,13.823,21.674,21.674,0,0,0,6.215,13.02,21.55,21.55,0,0,0,15.289,6.323,21.555,21.555,0,0,0,15.29-6.323,21.649,21.649,0,0,0,0-30.579,21.68,21.68,0,0,0-13-6.212,21.7,21.7,0,0,0-13.806,3.2,1.131,1.131,0,0,0-.354,1.561,1.132,1.132,0,0,0,1.561.355,19.247,19.247,0,0,1,24,2.7,19.38,19.38,0,0,1,0,27.377,19.379,19.379,0,0,1-27.376,0,19.482,19.482,0,0,1-2.681-24.03A1.134,1.134,0,0,0-3812.529,2315.689Z" fill="#8ab82d"/>
        <path id="Контур_20" data-name="Контур 20" d="M-3781.092,2328.744h1.4a1.132,1.132,0,0,0,1.132-1.132,1.132,1.132,0,0,0-1.132-1.132h-1.4a1.132,1.132,0,0,0-1.132,1.132A1.132,1.132,0,0,0-3781.092,2328.744Z" fill="#8ab82d"/>
        <path id="Контур_21" data-name="Контур 21" d="M-3813.054,2327.575a1.132,1.132,0,0,0,1.132,1.132h1.4a1.132,1.132,0,0,0,1.132-1.132,1.132,1.132,0,0,0-1.132-1.132h-1.4A1.132,1.132,0,0,0-3813.054,2327.575Z" fill="#8ab82d"/>
        <path id="Контур_22" data-name="Контур 22" d="M-3794.659,2312.877v-1.4a1.132,1.132,0,0,0-1.132-1.132,1.132,1.132,0,0,0-1.132,1.132v1.4a1.132,1.132,0,0,0,1.132,1.132A1.132,1.132,0,0,0-3794.659,2312.877Z" fill="#8ab82d"/>
        <path id="Контур_23" data-name="Контур 23" d="M-3796.959,2342.311v1.4a1.132,1.132,0,0,0,1.132,1.132,1.132,1.132,0,0,0,1.132-1.132v-1.4a1.132,1.132,0,0,0-1.132-1.132A1.132,1.132,0,0,0-3796.959,2342.311Z" fill="#8ab82d"/>
        <path id="Контур_24" data-name="Контур 24" d="M-3801.483,2320.318a1.133,1.133,0,0,0-1.6,0,1.132,1.132,0,0,0,0,1.6l3.837,3.837a3.877,3.877,0,0,0-.461,1.838,3.9,3.9,0,0,0,3.9,3.9,3.905,3.905,0,0,0,3.9-3.9,3.874,3.874,0,0,0-.461-1.838l7.741-7.741a1.132,1.132,0,0,0,0-1.6,1.132,1.132,0,0,0-1.6,0l-7.741,7.741a3.878,3.878,0,0,0-1.838-.461,3.877,3.877,0,0,0-1.838.461Zm7.31,7.276a1.638,1.638,0,0,1-1.636,1.636,1.638,1.638,0,0,1-1.636-1.636,1.638,1.638,0,0,1,1.636-1.636A1.638,1.638,0,0,1-3794.173,2327.594Z" fill="#8ab82d"/>
        <path id="Контур_25" data-name="Контур 25" d="M-3809.5,2313.905a1.137,1.137,0,0,0,.333-.8,1.138,1.138,0,0,0-.333-.8,1.143,1.143,0,0,0-.8-.332,1.142,1.142,0,0,0-.8.332,1.143,1.143,0,0,0-.331.8,1.142,1.142,0,0,0,.331.8,1.145,1.145,0,0,0,.8.331A1.142,1.142,0,0,0-3809.5,2313.905Z" fill="#8ab82d"/>
        <path id="Контур_26" data-name="Контур 26" d="M-3787.967,2301.976a1.133,1.133,0,0,0,.8-.332,1.135,1.135,0,0,0,.332-.8,1.137,1.137,0,0,0-.332-.8,1.137,1.137,0,0,0-.8-.332,1.138,1.138,0,0,0-.8.332,1.137,1.137,0,0,0-.332.8,1.135,1.135,0,0,0,.332.8A1.134,1.134,0,0,0-3787.967,2301.976Z" fill="#8ab82d"/>
      </g>
    </g>
  </g>
</svg>
