<svg xmlns="http://www.w3.org/2000/svg" width="56.167" height="56.163" viewBox="0 0 56.167 56.163">
  <g id="Сгруппировать_91" data-name="Сгруппировать 91" transform="translate(3052.027 -2295.537)">
    <g id="Сгруппировать_90" data-name="Сгруппировать 90">
      <g id="Сгруппировать_89" data-name="Сгруппировать 89">
        <path id="Контур_29" data-name="Контур 29" d="M-3035.613,2333.19l1.385,1.385a6.592,6.592,0,0,0,4.692,1.943,6.593,6.593,0,0,0,4.692-1.943,4.043,4.043,0,0,0,0-5.71l-2.312-2.312a3.2,3.2,0,0,0-2.276-.943,3.2,3.2,0,0,0-2.276.943.306.306,0,0,1-.432,0l-2.377-2.377a.3.3,0,0,1-.089-.216.3.3,0,0,1,.089-.216,3.222,3.222,0,0,0,0-4.552l-2.312-2.312a4.041,4.041,0,0,0-5.709,0,6.644,6.644,0,0,0,0,9.384l6.925,6.926Zm-5.374-14.758a1.845,1.845,0,0,1,2.607,0l2.311,2.311a1.026,1.026,0,0,1,0,1.45,2.482,2.482,0,0,0-.732,1.767,2.483,2.483,0,0,0,.732,1.767l2.378,2.378a2.5,2.5,0,0,0,3.534,0,1.017,1.017,0,0,1,.725-.3,1.016,1.016,0,0,1,.725.3l2.311,2.311a1.845,1.845,0,0,1,0,2.607,4.411,4.411,0,0,1-3.14,1.3,4.412,4.412,0,0,1-3.141-1.3l-1.384-1.385h0l-6.926-6.925A4.446,4.446,0,0,1-3040.987,2318.432Z" fill="#8ab82d"/>
        <path id="Контур_30" data-name="Контур 30" d="M-2997.2,2303.582a1.1,1.1,0,0,0-1.461-.524,1.1,1.1,0,0,0-.524,1.46,11.877,11.877,0,0,1-2.342,13.433,11.77,11.77,0,0,1-8.378,3.47,11.77,11.77,0,0,1-8.378-3.47,11.863,11.863,0,0,1,0-16.756,11.893,11.893,0,0,1,13.368-2.372,1.1,1.1,0,0,0,1.456-.534,1.1,1.1,0,0,0-.533-1.457,14.092,14.092,0,0,0-15.842,2.812q-.454.454-.859.94a5.15,5.15,0,0,0-2.544-.665h-23.6a5.2,5.2,0,0,0-5.193,5.193v41.4a5.2,5.2,0,0,0,5.193,5.192h23.6a5.2,5.2,0,0,0,5.193-5.192v-7.314a1.1,1.1,0,0,0-1.1-1.1,1.1,1.1,0,0,0-1.1,1.1v3.291h-29.6v-1.92h6.166a1.1,1.1,0,0,0,1.1-1.1,1.1,1.1,0,0,0-1.1-1.1h-6.166v-30.355h25.984a14.024,14.024,0,0,0,3.616,11.064v11.337a1.1,1.1,0,0,0,1.1,1.1,1.1,1.1,0,0,0,1.1-1.1v-9.4a13.935,13.935,0,0,0,8.139,2.6,13.951,13.951,0,0,0,9.93-4.112A14.08,14.08,0,0,0-2997.2,2303.582Zm-23.038,41.1v1.829a3,3,0,0,1-3,3h-23.6a3,3,0,0,1-3-3v-1.829Zm-29.6-38.857v-.71a3,3,0,0,1,3-3h23.6a2.972,2.972,0,0,1,1.263.28,13.944,13.944,0,0,0-1.459,3.429Z" fill="#8ab82d"/>
        <path id="Контур_31" data-name="Контур 31" d="M-3001.5,2310.681h.8a1.1,1.1,0,0,0,1.1-1.1,1.1,1.1,0,0,0-1.1-1.1h-.8a1.1,1.1,0,0,0-1.1,1.1A1.1,1.1,0,0,0-3001.5,2310.681Z" fill="#8ab82d"/>
        <path id="Контур_32" data-name="Контур 32" d="M-3019.1,2308.465a1.1,1.1,0,0,0-1.1,1.1,1.1,1.1,0,0,0,1.1,1.1h.8a1.1,1.1,0,0,0,1.1-1.1,1.1,1.1,0,0,0-1.1-1.1Z" fill="#8ab82d"/>
        <path id="Контур_33" data-name="Контур 33" d="M-3009.91,2316.875a1.1,1.1,0,0,0-1.1,1.1v.8a1.1,1.1,0,0,0,1.1,1.1,1.1,1.1,0,0,0,1.1-1.1v-.8A1.1,1.1,0,0,0-3009.91,2316.875Z" fill="#8ab82d"/>
        <path id="Контур_34" data-name="Контур 34" d="M-3008.8,2301.21a1.1,1.1,0,0,0-1.1-1.1,1.1,1.1,0,0,0-1.1,1.1v7.776l-3.278,2.187a1.1,1.1,0,0,0-.3,1.521,1.1,1.1,0,0,0,.914.489,1.089,1.089,0,0,0,.607-.185l3.767-2.512a1.1,1.1,0,0,0,.488-.913v-8.363Z" fill="#8ab82d"/>
        <path id="Контур_35" data-name="Контур 35" d="M-3000.746,2301.516a1.106,1.106,0,0,0,.776-.321,1.106,1.106,0,0,0,.321-.776,1.1,1.1,0,0,0-.321-.775,1.106,1.106,0,0,0-.776-.322,1.1,1.1,0,0,0-.775.322,1.1,1.1,0,0,0-.322.775,1.106,1.106,0,0,0,.322.776A1.105,1.105,0,0,0-3000.746,2301.516Z" fill="#8ab82d"/>
        <path id="Контур_36" data-name="Контур 36" d="M-3035.032,2348.3a1.1,1.1,0,0,0,.774-.321,1.1,1.1,0,0,0,.322-.776,1.1,1.1,0,0,0-.322-.775,1.1,1.1,0,0,0-.774-.322,1.108,1.108,0,0,0-.777.322,1.106,1.106,0,0,0-.322.775,1.107,1.107,0,0,0,.322.776A1.108,1.108,0,0,0-3035.032,2348.3Z" fill="#8ab82d"/>
        <path id="Контур_37" data-name="Контур 37" d="M-3019.136,2333.708a1.11,1.11,0,0,0-.776.322,1.105,1.105,0,0,0-.321.776,1.105,1.105,0,0,0,.321.775,1.107,1.107,0,0,0,.776.322,1.106,1.106,0,0,0,.776-.322,1.1,1.1,0,0,0,.321-.775,1.1,1.1,0,0,0-.321-.776A1.105,1.105,0,0,0-3019.136,2333.708Z" fill="#8ab82d"/>
        <path id="Контур_38" data-name="Контур 38" d="M-3040.055,2338.692a1.109,1.109,0,0,0-.321.776,1.1,1.1,0,0,0,.321.776,1.1,1.1,0,0,0,.776.321,1.106,1.106,0,0,0,.777-.321,1.105,1.105,0,0,0,.321-.776,1.11,1.11,0,0,0-.321-.776,1.106,1.106,0,0,0-.777-.321A1.1,1.1,0,0,0-3040.055,2338.692Z" fill="#8ab82d"/>
      </g>
    </g>
  </g>
</svg>
