<svg xmlns="http://www.w3.org/2000/svg" width="22.431" height="22.442" viewBox="0 0 22.431 22.442">
  <g id="Сгруппировать_120" data-name="Сгруппировать 120" transform="translate(3143.64 -3461.752)">
    <path id="Контур_59" data-name="Контур 59" d="M-3132.4,3461.769l8.579,0a2.543,2.543,0,0,1,2.609,2.625q0,8.58,0,17.159a2.545,2.545,0,0,1-2.646,2.628c-5.707,0-11.413-.021-17.12.01a2.7,2.7,0,0,1-2.661-2.679q.054-8.539,0-17.081a2.7,2.7,0,0,1,2.7-2.681C-3138.091,3461.8-3135.244,3461.769-3132.4,3461.769Zm-6.785,9.464h-1.762v.406q0,4.521,0,9.042c0,.581.175.759.765.76q7.761,0,15.523,0c.587,0,.764-.181.764-.761q0-4.521,0-9.042c0-.137-.012-.273-.02-.431h-1.74a7.018,7.018,0,0,1-6.391,8.758,6.686,6.686,0,0,1-4.9-1.675A6.97,6.97,0,0,1-3139.182,3471.233Zm6.791-2.537a4.314,4.314,0,0,0-4.355,4.269,4.3,4.3,0,0,0,4.34,4.356,4.3,4.3,0,0,0,4.317-4.3A4.308,4.308,0,0,0-3132.391,3468.7Zm4.338-2.116v1.241a.8.8,0,0,0,.839.86q1.242.016,2.483,0a.8.8,0,0,0,.839-.862q.009-1.241,0-2.482a.751.751,0,0,0-.783-.82q-1.3-.023-2.6,0a.744.744,0,0,0-.778.822C-3128.057,3465.752-3128.052,3466.166-3128.053,3466.58Z" fill="#fff"/>
  </g>
</svg>
