<svg xmlns="http://www.w3.org/2000/svg" width="35.312" height="20.148" viewBox="0 0 35.312 20.148">
  <g id="Сгруппировать_121" data-name="Сгруппировать 121" transform="translate(3039.246 -3464.045)">
    <path id="Контур_60" data-name="Контур 60" d="M-3021.969,3484.1h2.111a1.781,1.781,0,0,0,.961-.421,1.547,1.547,0,0,0,.292-.931s-.041-2.826,1.273-3.248c1.3-.415,2.963,2.735,4.723,3.952a3.366,3.366,0,0,0,2.347.719l4.715-.071s2.467-.152,1.3-2.091a15.913,15.913,0,0,0-3.507-4.06c-2.958-2.739-2.562-2.3,1-7.049,2.17-2.883,3.036-4.654,2.765-5.409-.256-.722-1.851-.533-1.851-.533l-5.309.037a1.212,1.212,0,0,0-.689.121,1.474,1.474,0,0,0-.469.567,30.505,30.505,0,0,1-1.959,4.141c-2.366,4.014-3.311,4.23-3.7,3.976-.9-.579-.672-2.33-.672-3.581,0-3.885.587-5.507-1.15-5.926a9.062,9.062,0,0,0-2.479-.249,11.405,11.405,0,0,0-4.405.452c-.6.293-1.071.954-.786.991a2.37,2.37,0,0,1,1.568.789,5.123,5.123,0,0,1,.523,2.4s.313,4.58-.732,5.149c-.715.388-1.7-.4-3.8-4.053a33.478,33.478,0,0,1-1.9-3.929,1.605,1.605,0,0,0-.439-.587,2.155,2.155,0,0,0-.816-.33l-5.045.03s-.759.02-1.035.354c-.248.29-.02.9-.02.9s3.95,9.241,8.422,13.9a12.131,12.131,0,0,0,8.759,3.993Z" fill="#fff" fill-rule="evenodd"/>
  </g>
</svg>
